<svg xmlns="http://www.w3.org/2000/svg" width="114" height="114" fill="none"><path fill="#030922" fill-rule="evenodd" d="M47.838.55C35.8 2.57 24.926 8.31 16.136 17.285 4.9 28.759-.746 43.814.079 60.092c.744 14.654 6.503 27.303 17.197 37.774 11.474 11.233 26.531 16.88 42.811 16.055 14.654-.743 27.305-6.502 37.777-17.195 11.235-11.473 16.882-26.528 16.057-42.807-.744-14.653-6.503-27.302-17.197-37.773C88.5 8.096 77.235 2.39 65.952.562 61.36-.182 52.234-.188 47.838.549Zm1.437 17.561c1.843.956 8.53 7.762 29.907 30.444C96.295 66.712 97.83 68.848 97.28 73.73c-.398 3.526-2.22 6.892-4.906 9.067-1.896 1.534-5.751 2.67-28.048 8.26-25.215 6.324-25.93 6.465-29.153 5.758-4.049-.888-7.634-3.907-9.013-7.592-.532-1.421-2.933-12.446-5.335-24.5-4.496-22.564-4.69-24.59-2.726-28.389.958-1.853 16.94-16.585 19.416-17.899 3.713-1.969 8.338-2.096 11.759-.323Zm-8.398 6.043c-.719.413-4.813 3.921-9.098 7.797-6.105 5.52-7.873 7.477-8.165 9.036-.531 2.83 8.014 45.122 9.535 47.194 2.326 3.168 2.522 3.145 29.232-3.43 21.763-5.358 25.084-6.33 26.57-7.78 2.142-2.093 2.271-5.163.325-7.69-3.397-4.406-42.232-44.862-43.544-45.362-1.944-.738-3.271-.674-4.855.235Z" clip-rule="evenodd"/></svg>