<svg xmlns="http://www.w3.org/2000/svg" viewBox="0 0 313 316" fill="none"><path fill="#fff" fill-rule="evenodd" d="M126.886 2.82c-13.007 2.549-13.5 2.737-13.5 5.134 0 2.056.477 2.48 2.744 2.449 2.37-.034 2.829.445 3.363 3.5.341 1.946 1.185 6.335 1.876 9.752 1.35 6.672 1.205 7.287-1.716 7.287-1.483 0-1.83.604-1.583 2.75.368 3.205-1.064 3.228 17.909-.292l14.593-2.707-.799-4.125c-.44-2.27-.819-4.688-.843-5.376-.025-.713-1.334-1.25-3.044-1.25-2.75 0-3 .286-3 3.428 0 3.414-.023 3.43-5.75 4.224-3.163.438-6.182.807-6.709.822-.527.014-1.256-1.425-1.618-3.198-.55-2.69-.32-3.333 1.382-3.873 1.322-.42 2.461-.075 3.229.974.653.893 2.199 1.623 3.438 1.623 2.049 0 2.193-.336 1.605-3.75-1.563-9.084-1.515-8.984-4.124-8.486-1.501.287-2.453 1.155-2.453 2.236 0 .98-.981 2.023-2.206 2.344-2.644.69-2.38.979-3.185-3.478-.757-4.193-.523-4.358 7.601-5.373 5.354-.67 5.544-.61 6.176 1.908.39 1.557 1.346 2.593 2.383 2.584 3.438-.031 4.096-1.267 3.185-5.99-.477-2.472-.886-4.833-.91-5.245-.067-1.14-3.318-.756-18.044 2.129Zm32.833 1.122c-.091 2.2-.204 4.787-.25 5.75-.061 1.296.695 1.75 2.917 1.75 2.529 0 3.05-.431 3.316-2.75.264-2.29.799-2.75 3.191-2.75 1.581 0 3.158.458 3.504 1.018.346.56.088 5.318-.574 10.575-1.156 9.183-1.291 9.535-3.463 8.99-1.823-.458-2.388-.062-2.916 2.043-.361 1.435-.521 2.743-.357 2.905.57.562 16.303 2.203 17.049 1.778.413-.235.75-1.525.75-2.868 0-1.965-.509-2.441-2.611-2.441-2.394 0-2.565-.271-2.055-3.25.306-1.787.859-6.287 1.228-10l.671-6.75h3.383c3.201 0 3.384.19 3.384 3.5 0 3.187.257 3.5 2.869 3.5 2.539 0 2.941-.432 3.489-3.75 1.381-8.355 2.242-7.747-13.608-9.597-20.432-2.385-19.716-2.47-19.917 2.347Zm47.406 6.375c-.941 2.064-.77 2.518 1.304 3.463l2.386 1.087-3.927 8.787c-3.789 8.478-4.034 8.777-6.965 8.474-1.67-.173-3.037.128-3.037.668s-.246 1.624-.547 2.409c-.389 1.014 1.611 2.367 6.928 4.685 7.779 3.392 9.032 3.405 9.896.102.354-1.355-.081-2.171-1.38-2.583-2.197-.697-2.317-1.451-.772-4.842.888-1.95 1.563-2.306 3.211-1.696 1.793.663 2.098 1.639 2.167 6.94.068 5.158.484 6.572 2.539 8.626 2.687 2.685 7.7 4.065 9.766 2.687 1.374-.916.631-6.571-.752-5.717-.401.248-1.703-.23-2.893-1.063-1.505-1.055-2.163-2.563-2.163-4.96 0-3.17.241-3.442 3.045-3.442 6.52 0 10.262-8.262 6.303-13.914-1.397-1.994-20.793-12.086-23.229-12.086-.439 0-1.285 1.069-1.88 2.375ZM91.777 13.719c-6.095 3.433-6.53 3.899-5.59 5.99.711 1.58 1.575 2.09 2.859 1.682 1.012-.321 1.84-.37 1.84-.11 0 1.035-5.95 13.66-6.438 13.66-.287 0-1.471-1.86-2.631-4.135-1.709-3.35-1.856-4.297-.771-4.984.737-.467 1.668-.856 2.069-.865.4-.008.216-1.14-.411-2.515-.626-1.375-1.629-2.491-2.229-2.48-.599.012-4.063 1.7-7.698 3.75-6.121 3.454-6.533 3.899-5.579 6.02.682 1.517 1.565 2.084 2.609 1.677.869-.338 1.982-.694 2.474-.791.965-.19 9.555 15.05 9.586 17.007.011.65-.861 1.46-1.935 1.803-1.676.53-1.796.968-.84 3.067.613 1.346 1.395 2.447 1.737 2.447.522 0 13.896-6.794 14.876-7.557.176-.136-.274-1.21-1-2.384-.926-1.501-1.97-1.975-3.508-1.594-2.977.738-3.678-.823-2.277-5.067 1.253-3.797 1.887-3.9 8.531-1.373 2.143.815 2.426 1.28 1.474 2.428-.887 1.068-.897 1.944-.041 3.544.626 1.168 1.444 1.98 1.82 1.807 5.281-2.462 13.179-7.001 13.167-7.568-.043-2.073-2.224-3.684-5.177-3.824-3.964-.188-14.808-4.183-14.808-5.455 0-1.982 4.959-11.957 5.945-11.957 1.433 0 1.33-2.251-.195-4.282-1.139-1.516-1.839-1.332-7.859 2.059Zm128.812 5.416c4.07 1.737 6.297 3.856 6.297 5.993 0 2.383-2.132 3.204-6.258 2.409-5.512-1.062-6.143-1.85-4.781-5.976 1.366-4.14 1.075-3.99 4.742-2.426Zm28.497 11.007c-1.67 1.67-1.497 3.472.404 4.2 2.111.812 1.501 2.162-4.763 10.532-5.025 6.716-5.354 6.962-7.457 5.584-2.231-1.462-2.84-1.186-4.729 2.139-.392.69 2.182 3.259 6.39 6.379 6.71 4.974 7.114 5.133 8.469 3.345 1.835-2.424 1.832-3.31-.014-4.017-.825-.317-1.5-1.05-1.5-1.63 0-1.361 10.801-15.732 11.824-15.732.427 0 1.321.545 1.987 1.21.948.949 1.666.757 3.308-.884l2.096-2.096-6.757-5.115c-7.4-5.603-7.52-5.653-9.258-3.915ZM40.921 49.407c-6.303 6.359-6.378 6.499-4.57 8.497 1.395 1.54 2.161 1.763 3.174.922 1.053-.873 1.733-.184 3.209 3.254 1.031 2.399 2.913 6.775 4.184 9.723 1.808 4.196 2.068 5.75 1.195 7.146-.889 1.424-.715 2.147.862 3.573 1.922 1.74 2.124 1.64 7.446-3.615 5.442-5.374 5.461-5.414 3.504-7.371-1.908-1.908-2.03-1.912-3.985-.143-1.964 1.778-2.04 1.763-2.936-.563-.787-2.044-.327-3.001 3.19-6.638 4.485-4.64 4.511-4.652 6.692-3.265 1.209.769 1.268 1.328.306 2.88-.991 1.6-.851 2.237.823 3.752 1.978 1.79 2.117 1.712 7.384-4.146 5.191-5.773 5.309-6.032 3.559-7.812-1.507-1.534-2.137-1.635-3.779-.61-1.664 1.039-3.488.643-11.702-2.54-6.831-2.646-9.416-4.084-8.674-4.826.741-.741.567-1.596-.586-2.87-.902-.997-1.922-1.813-2.265-1.813-.343 0-3.507 2.909-7.031 6.465Zm231.53.864c-1.485 1.086-1.612 1.715-.692 3.434.62 1.158 1.127 2.33 1.127 2.607 0 .276-3.304 3.2-7.342 6.5-7.306 5.97-7.352 5.99-9.313 4.03-1.961-1.961-1.98-1.961-3.776.024-1.76 1.945-1.674 2.16 3.399 8.535 2.862 3.598 5.529 6.54 5.927 6.54.397 0 1.59-.633 2.651-1.41 1.886-1.378 1.887-1.453.053-3.48-1.537-1.698-1.648-2.345-.615-3.59 1.849-2.227 2.647-1.934 6.585 2.425 4.668 5.168 9.049 6.66 13.765 4.69 6.067-2.535 7.503-9.163 3.411-15.744-2.567-4.127-11.964-15.748-12.804-15.833-.307-.031-1.377.54-2.376 1.272ZM50.603 55.578c2.355.9 4.283 1.946 4.283 2.326 0 .953-4.903 5.478-5.373 4.959-1.2-1.325-4.547-8.921-3.931-8.921.406 0 2.665.736 5.021 1.636ZM281.46 65.875c3.059 4.622 2.591 7.736-1.309 8.715-2.14.537-3.194.006-5.947-3l-3.347-3.65 3.264-2.97c1.796-1.633 3.596-2.983 4.001-3 .405-.015 1.907 1.742 3.338 3.905Zm-139.914.115c-19.498 3.272-37.111 12.572-51.348 27.11-18.197 18.585-27.344 42.973-26.007 69.342 1.204 23.736 10.532 44.226 27.854 61.188 18.584 18.197 42.972 27.344 69.341 26.007 23.736-1.204 44.226-10.532 61.188-27.854 18.197-18.584 27.344-42.972 26.007-69.341-1.204-23.736-10.532-44.226-27.854-61.188-13.319-13.041-31.566-22.283-49.841-25.244-7.44-1.205-22.22-1.215-29.34-.02ZM19.628 76.413l-3.599 7.273 2.558 1.165c1.406.64 2.658 1.037 2.781.878.123-.158.627-1.024 1.121-1.926.761-1.391 1.805-.817 6.897 3.793l6 5.432-11.142-.68c-10.475-.636-11.206-.558-12.209 1.316-.921 1.72-.119 3.02 5.892 9.545 3.828 4.153 6.959 7.826 6.959 8.161 0 .336-1.012.401-2.25.146-1.238-.256-4.428-.748-7.09-1.094-4.416-.574-4.789-.828-4.269-2.903.439-1.747 0-2.533-1.891-3.395-2.789-1.271-2.639-1.447-6.848 8.07L0 117.933l2.114 1.131c1.727.924 2.354.802 3.428-.667 1.231-1.683 2.183-1.721 14.878-.597 7.459.66 13.991.936 14.514.612 2.056-1.271.69-3.964-5.548-10.933-3.575-3.995-6.5-7.55-6.5-7.9 0-.35 4.902-.637 10.893-.637 14.89 0 14.998-.563 2.516-13.092-8.282-8.313-9.587-10.063-9.061-12.158.481-1.917.114-2.674-1.697-3.5-2.173-.99-2.524-.621-5.909 6.22Zm274.278 12.813c-4.218 2.134-5.106 5.224-4.403 15.311.547 7.844.411 9.18-.989 9.718-3.132 1.201-4.982-3.584-4.293-11.101.834-9.091.17-9.917-5.682-7.074-2.559 1.243-4.653 2.65-4.653 3.127 0 2.094 2.266 4.847 3.577 4.344 1.116-.428 1.423.553 1.423 4.554 0 10.614 8.836 17.123 15.743 11.598 2.269-1.815 3.231-7.954 2.286-14.596-1.035-7.28-.597-9.165 2.129-9.165 3.867 0 5.799 9.642 2.721 13.582-.483.619-.305 1.821.418 2.809 1.189 1.627 1.535 1.61 5.983-.297 5.268-2.258 5.144-2.069 3.596-5.468-.665-1.459-1.687-2.252-2.5-1.94-1.032.396-1.376-.512-1.376-3.629 0-5.295-2.23-9.607-5.967-11.54-3.541-1.831-4.783-1.867-8.013-.233Zm-150.033 5.212c2.986 1.548 13.816 12.573 48.441 49.315 27.718 29.412 30.206 32.872 29.315 40.778-.644 5.712-3.594 11.165-7.945 14.687-3.072 2.486-9.316 4.325-45.43 13.382-40.841 10.243-41.999 10.472-47.22 9.327-6.558-1.439-12.364-6.33-14.598-12.299-.862-2.302-4.75-20.161-8.641-39.686-7.283-36.552-7.598-39.833-4.416-45.987 1.553-3.002 27.438-26.866 31.449-28.994 6.013-3.19 13.505-3.395 19.045-.523Zm-13.602 9.789c-1.164.668-7.795 6.351-14.736 12.629-9.888 8.943-12.751 12.112-13.225 14.638-.86 4.584 12.98 73.092 15.445 76.448 3.767 5.131 4.084 5.094 47.346-5.556 35.25-8.679 40.629-10.254 43.035-12.604 3.47-3.389 3.68-8.363.527-12.455-5.502-7.138-68.403-72.672-70.528-73.481-3.148-1.196-5.298-1.092-7.864.381ZM10.856 162.478c-1.816 2.189-.062 4.964 3.139 4.964 1.99 0 2.391-.503 2.391-3 0-2.28-.501-3.072-2.088-3.298-1.148-.164-2.697.436-3.442 1.334Zm288.07-.084c-2.082 2.509-.845 5.048 2.46 5.048 2.066 0 3.078-.548 3.319-1.798.397-2.062-1.467-4.702-3.319-4.702-.69 0-1.797.653-2.46 1.452Zm-270.548 37.34c-.546.389-.992 1.34-.992 2.113 0 .8-2.252 2.169-5.237 3.184-4.734 1.609-5.321 1.629-6.118.205-.485-.866-1.344-1.289-1.909-.94-1.077.666 3.617 16.922 5.023 17.396 1.382.466 3.236.222 4.525-.595 1.786-1.134.461-4.031-1.599-3.496-1.224.318-1.989-.544-2.798-3.149-.968-3.119-.878-3.712.69-4.551 2.281-1.221 3.582.542 1.896 2.573-1.733 2.089 1.394 3.077 4.812 1.52l2.657-1.21-2.471-1.914c-2.095-1.622-2.243-2.064-.971-2.905 2.589-1.712 3.629-1.137 4.791 2.647.963 3.139.879 3.853-.582 4.933-1.234.912-1.407 1.569-.622 2.367 1.429 1.452 6.801-.496 6.161-2.234-.25-.68-1.477-4.386-2.725-8.236-2.522-7.775-3.089-8.739-4.531-7.708Zm255.705 4.47c-.576.694-2.029 3.886-3.229 7.093-1.663 4.445-1.904 6.106-1.012 6.988.886.877 1.4.747 2.125-.538.9-1.594 1.233-1.594 5.554 0 2.889 1.065 4.917 2.532 5.457 3.945 1.308 3.428 2.56 2.721 4.318-2.439 1.215-3.567 1.311-4.865.401-5.428-.667-.412-1.707-.04-2.352.842-1.626 2.224-3.771.726-2.462-1.72 1.481-2.767 1.219-6.646-.568-8.434-1.887-1.886-6.771-2.069-8.232-.309Zm6.411 4.16c.59 1.536-1.187 5.578-2.452 5.578-2.241 0-3.934-2.598-3.096-4.75.982-2.524 4.685-3.077 5.548-.828ZM35.192 219.586c-.656.267-.949 1.123-.65 1.903.3.78-1.526 4.319-4.056 7.865-2.53 3.545-4.6 6.995-4.6 7.665 0 .912 2.271 1.072 9 .636 5.332-.346 9-.202 9 .352 0 .514.675.935 1.5.935 2.045 0 1.883-1.644-.55-5.581-1.239-2.005-2.599-3.107-3.437-2.786-.763.293-1.166 1.107-.896 1.81.323.844-.803 1.492-3.314 1.906-6.432 1.063-6.639.863-3.379-3.253 2.264-2.858 3.626-3.765 5.084-3.384 2.585.676 2.556-1.064-.09-5.344-1.144-1.852-2.157-3.332-2.25-3.289-.092.043-.705.297-1.362.565Zm239.667 5.41c-1.579 3.094-1.843 4.476-1.012 5.307.83.83 1.355.746 2.014-.321 1.336-2.161 11.35 2.609 10.7 5.096-.25.954.17 1.974.932 2.267 1.96.752 5.987-7.209 4.432-8.764-.83-.83-1.336-.776-1.943.206-1.173 1.898-11.288-3.239-10.882-5.526.604-3.405-2.206-2.256-4.241 1.735Zm-10.457 17.14c-3.182 4.373-4.151 6.414-3.295 6.943.667.412 1.772.284 2.457-.284 1.912-1.588 10.251 4.702 9.589 7.233-.889 3.399 2.324 2.13 5.055-1.996 2.06-3.114 2.298-4.022 1.165-4.457-.783-.3-1.69-.114-2.016.413-.37.6-1.36.549-2.639-.136-3.023-1.618-.672-3.395 4.042-3.055 4.002.289 7.126-1.652 7.126-4.426 0-1.901-1.92-1.811-4.134.192-2.309 2.09-4.866 1.097-4.866-1.89 0-3.1-1.788-4.731-5.189-4.731-2.266 0-3.632 1.16-7.295 6.194Zm7.997 2.146c-1.44 2.198-1.961 2.397-3.599 1.374-2.406-1.502-2.391-1.825.21-4.616 1.871-2.009 2.298-2.105 3.598-.804 1.301 1.3 1.276 1.78-.209 4.046ZM46.561 240.6c-.362.362-.208 1.199.341 1.861 1.436 1.731-7.81 8.896-9.583 7.426-1.585-1.316-2.899.458-1.737 2.345 1.521 2.471 9.545 12.71 9.959 12.71.229 0 1.532-.732 2.898-1.626 1.839-1.206 2.209-1.956 1.428-2.897-.58-.699-1.835-1.067-2.788-.817-1.098.287-2.537-.633-3.926-2.512-1.864-2.522-1.98-3.141-.773-4.143 1.573-1.306 3.64-.507 3.414 1.32-.414 3.356.183 3.668 3.011 1.577 2.824-2.088 3.274-5.297.599-4.271-2.125.816-2.881-1.645-.941-3.064 1.541-1.127 2.1-.916 4.206 1.587 2.009 2.388 2.21 3.149 1.165 4.408-2.129 2.566.343 3.949 3.437 1.922 2.934-1.923 3.019-1.685-3.674-10.234-4.825-6.163-5.739-6.889-7.036-5.592Zm205.022 17.143-6.749 6.802 2.376 2.232c1.96 1.841 2.573 1.994 3.502.875.836-1.007.834-1.65-.007-2.491-.846-.846-.798-1.539.186-2.725 1.175-1.416 1.793-1.127 5.63 2.638 3.133 3.075 4.031 4.566 3.289 5.46-.702.846-.667 1.449.114 1.931.632.391 2.63-.747 4.509-2.569 3.421-3.315 3.697-5.484.574-4.492-1.125.357-3.034-.813-5.575-3.415-3.281-3.36-3.67-4.193-2.573-5.515 1.005-1.211 1.606-1.297 2.702-.387 1.051.872 1.698.882 2.544.036.845-.845.668-1.649-.698-3.157-1.007-1.113-2.111-2.024-2.453-2.024-.342 0-3.659 3.061-7.371 6.801Zm-190.13.091c-.315.51-.335 1.548-.044 2.307.291.759-1.105 3.29-3.104 5.624-2.772 3.239-3.942 3.988-4.937 3.162-.94-.78-1.5-.765-2.005.053-.391.632.753 2.636 2.585 4.526 2.534 2.615 3.593 3.137 4.625 2.281.934-.775 1.028-1.483.313-2.345-.72-.867-.588-1.597.444-2.453 2.301-1.91 3.529-.435 2.315 2.781-1.395 3.696-.282 7.871 2.319 8.697 2.753.874 3.625-.17 2.134-2.557-.667-1.067-1.212-2.856-1.212-3.973 0-1.65.455-1.919 2.413-1.427 2.631.66 6.587-2.362 6.587-5.033 0-3.117-11.213-13.618-12.433-11.643Zm7.507 9.246c2.045 3.821-1.484 5.277-4.557 1.881-1.432-1.583-1.549-2.275-.582-3.441 1.452-1.75 3.739-1.055 5.139 1.56Zm8.587 4.601c-.281.455-.053 2.977.508 5.603 1.345 6.308.457 9.873-2.359 9.465-3.713-.537-3.083 1.984 1.203 4.82 3.389 2.243 4.3 2.485 5.011 1.333.531-.859.444-1.67-.223-2.083-3.03-1.873 3.706-6.728 10.007-7.213 3.74-.287 3.618-1.871-.344-4.438-2.915-1.889-3.604-2.024-4.075-.798-.311.812-.306 1.897.011 2.41.64 1.036-3.265 2.363-4.574 1.555-1.341-.83-.963-5.42.424-5.143.688.137 1.25-.331 1.25-1.04 0-1.599-6.135-5.609-6.839-4.471Zm154.074 2.518c-3.889 2.224-4.46 4.241-1.203 4.246 1.027.002 2.681 1.41 3.693 3.143l1.834 3.14-7.257-2.216c-6.735-2.056-7.456-2.103-10.023-.643-2.974 1.692-3.18 3.568-.393 3.581.944.005 2.973 2.028 4.514 4.5 2.18 3.499 2.564 4.869 1.737 6.197-1.755 2.819.167 3.3 4.132 1.034 3.928-2.245 4.954-4.732 1.959-4.748-1.554-.009-5.703-4.839-5.721-6.66-.004-.368 3.603.44 8.016 1.795s8.447 2.201 8.966 1.881c.519-.321-.805-3.438-2.94-6.928-2.861-4.674-3.59-6.638-2.766-7.462 2.408-2.408-.784-3.012-4.548-.86ZM96.996 286.338c-9.025 5.002-4.815 17.604 5.881 17.604 4.041 0 7.951-3.709 8.669-8.223.526-3.304.196-4.121-2.933-7.25-3.829-3.829-7.379-4.48-11.617-2.131Zm106.14 2.271c-4.428 1.563-5.365 2.968-2.668 4.003 1.316.505 1.464 1.636.88 6.718-.386 3.362-1.075 6.349-1.529 6.638-.455.29-.495 1.064-.089 1.721 1.163 1.883 8.156-.589 8.156-2.883 0-1.19-.509-1.606-1.5-1.226-.956.367-1.5-.016-1.5-1.056 0-1.844 4.595-3.951 6.785-3.111 1.176.451 1.207.834.17 2.083-2.072 2.497.182 3.415 4.295 1.75 3.88-1.571 5.116-4.304 1.946-4.304-2.451 0-8.696-6.625-8.696-9.225 0-2.732-1.099-2.926-6.25-1.108Zm-96.2 2.426c2.609 4.876-2.728 11.286-7.563 9.083-3.22-1.467-4.177-5.474-2.074-8.683 2.155-3.29 7.962-3.53 9.637-.4Zm9.718 1.09c-.244.725.175 1.773.931 2.331 2.127 1.567-.353 11.486-2.871 11.486-3.335 0-1.941 2.756 1.743 3.447 1.964.369 4.214.917 5 1.219 1.826.7 1.919-2.271.105-3.366-1.056-.638-1.098-1.707-.21-5.268l1.114-4.468 4.271 7.781c2.348 4.28 4.805 7.605 5.46 7.39.654-.215 1.819-3.393 2.589-7.063 1.117-5.32 1.775-6.672 3.25-6.672 3.571 0 1.849-2.757-2.394-3.834-4.818-1.223-7.497.051-4.604 2.19 1.596 1.18 1.557 6.088-.057 7.085-.367.227-2.225-2.479-4.131-6.013-2.127-3.946-4.108-6.426-5.132-6.427-.918 0-2.333-.256-3.145-.568-.812-.311-1.675.026-1.919.75Zm91.025 4.966c-2.243 1.423-2.794.944-2.76-2.399l.034-3.25 2.01 2.414c1.57 1.886 1.727 2.594.716 3.235Zm-19.19-3.316c-.283.459-1.87.635-3.527.391-6.159-.903-11.249 7.846-8.046 13.831 1.599 2.99 6.732 5.212 10.432 4.518 4.183-.785 8.645-5.271 6.537-6.573-.997-.617-2.03-.271-3.315 1.109-2.708 2.906-7.667 2.208-9.653-1.359-1.375-2.47-1.375-3.03.002-5.5 1.625-2.914 5.47-4.147 7.282-2.335 1.229 1.229 4.692 1.477 4.671.335-.072-3.983-2.894-6.826-4.383-4.417Zm-46.603 4.667c0 .825.697 1.5 1.55 1.5 1.255 0 1.493 1.094 1.25 5.75-.225 4.311-.675 5.75-1.8 5.75-.825 0-1.5.675-1.5 1.5 0 1.189 1.917 1.604 9.252 2l9.252.5-.002-3.25c-.001-2.221-.477-3.25-1.502-3.25-.825 0-1.5.675-1.5 1.5 0 1.083-1.111 1.5-4 1.5-3.333 0-4-.333-4-2 0-1.111.667-2 1.5-2 .825 0 1.5.45 1.5 1s.675 1 1.5 1c1.048 0 1.5-1.056 1.5-3.5s-.452-3.5-1.5-3.5c-.825 0-1.5.45-1.5 1s-.675 1-1.5 1c-.933 0-1.5-.944-1.5-2.5 0-2.25.4-2.5 4-2.5 3.333 0 4 .333 4 2 0 1.333.667 2 2 2 1.619 0 2-.667 2-3.5v-3.5h-9.5c-7.778 0-9.5.272-9.5 1.5Z" clip-rule="evenodd"/></svg>